<?xml version="1.0" standalone="no"?>
<!DOCTYPE svg PUBLIC "-//W3C//DTD SVG 20010904//EN"
 "http://www.w3.org/TR/2001/REC-SVG-20010904/DTD/svg10.dtd">
<svg version="1.0" xmlns="http://www.w3.org/2000/svg"
 width="500.000000pt" height="500.000000pt" viewBox="0 0 500.000000 500.000000"
 preserveAspectRatio="xMidYMid meet">

<g transform="translate(0.000000,500.000000) scale(0.100000,-0.100000)"
fill="#000000" stroke="none">
<path d="M1803 4570 c-40 -17 -43 -38 -43 -318 0 -250 1 -272 19 -293 27 -33
95 -33 122 0 16 20 19 40 19 147 l0 124 -25 0 -25 0 0 -119 c0 -93 -3 -121
-15 -131 -12 -10 -18 -10 -30 0 -13 10 -15 54 -15 276 0 246 1 264 18 273 33
18 42 -6 42 -116 l0 -103 25 0 25 0 0 109 c0 89 -3 113 -17 130 -21 24 -68 35
-100 21z"/>
<path d="M3768 4565 c-18 -10 -29 -27 -33 -48 -3 -17 -5 -148 -3 -289 3 -230
5 -259 21 -275 24 -24 89 -23 116 1 19 17 21 30 21 148 l0 128 -25 0 -25 0 0
-124 c0 -90 -3 -125 -12 -128 -36 -14 -38 -2 -38 277 0 279 2 290 38 278 8 -3
12 -35 12 -114 l0 -109 25 0 25 0 0 113 c0 97 -3 116 -18 130 -27 24 -73 29
-104 12z"/>
<path d="M1120 4255 l0 -315 58 0 c98 0 102 7 102 164 0 109 -3 136 -16 147
-14 11 -14 13 0 21 13 7 16 31 16 138 0 153 -5 160 -102 160 l-58 0 0 -315z
m105 150 c0 -117 -1 -120 -22 -123 -23 -3 -23 -2 -23 123 0 125 0 126 23 123
21 -3 22 -6 22 -123z m3 -292 c-3 -124 -4 -128 -25 -131 -23 -3 -23 -3 -23
127 l0 131 25 0 26 0 -3 -127z"/>
<path d="M2050 4562 c0 -4 -11 -140 -25 -302 -14 -162 -25 -300 -25 -307 0 -7
11 -13 24 -13 22 0 24 5 30 71 6 58 10 70 24 67 14 -3 18 -17 20 -71 3 -66 3
-67 30 -67 l28 0 -27 313 c-15 171 -27 313 -28 315 -3 6 -51 1 -51 -6z m39
-374 c1 -57 -2 -68 -15 -68 -15 0 -16 9 -10 61 3 34 7 96 8 138 l1 76 7 -70
c4 -38 8 -100 9 -137z"/>
<path d="M3100 4255 l0 -317 65 4 c36 2 71 10 77 16 20 20 24 560 5 586 -11
15 -30 21 -81 24 l-66 4 0 -317z m100 0 l0 -275 -25 0 -25 0 0 275 0 275 25 0
25 0 0 -275z"/>
<path d="M3990 4255 l0 -315 50 0 c43 0 50 3 50 20 0 15 -7 20 -25 20 l-25 0
0 135 0 135 25 0 c18 0 25 5 25 20 0 15 -7 20 -25 20 l-25 0 0 120 0 120 25 0
c18 0 25 5 25 20 0 17 -7 20 -50 20 l-50 0 0 -315z"/>
<path d="M2942 1933 c-28 -21 -52 -41 -52 -45 0 -13 22 -9 40 7 15 13 20 9 58
-45 39 -54 62 -74 62 -52 0 5 -19 35 -42 67 l-42 58 22 15 c22 14 29 32 14 32
-4 0 -31 -17 -60 -37z"/>
<path d="M1956 1889 c-26 -39 -46 -72 -44 -73 2 -2 19 -14 38 -29 52 -38 84
-43 103 -17 8 12 13 29 10 39 -3 12 2 20 16 24 21 5 29 41 13 62 -8 11 -78 65
-85 65 -2 0 -25 -32 -51 -71z m119 -7 c3 -8 0 -21 -6 -28 -9 -11 -16 -11 -39
1 -37 19 -43 30 -30 55 11 20 12 20 40 3 16 -9 32 -23 35 -31z m-37 -77 c8
-38 -35 -37 -80 2 -16 14 -16 17 -1 39 l16 25 31 -24 c17 -14 33 -32 34 -42z"/>
<path d="M2788 1847 c-27 -11 -48 -23 -48 -27 0 -16 60 -145 69 -148 14 -5
111 39 111 50 0 10 -31 3 -72 -18 -25 -13 -28 -12 -38 5 -16 31 -13 37 31 54
22 9 38 20 35 26 -4 6 -22 3 -46 -6 -44 -18 -45 -17 -54 13 -5 18 0 24 39 38
25 10 43 22 39 27 -7 12 -10 11 -66 -14z"/>
<path d="M2164 1813 c-27 -65 -29 -108 -5 -132 26 -26 82 -28 104 -3 17 19 47
94 47 118 0 29 -17 12 -29 -28 -18 -62 -38 -88 -66 -88 -13 0 -31 9 -39 21
-15 22 -14 28 18 127 12 38 -12 25 -30 -15z"/>
<path d="M2614 1798 l-51 -9 9 -52 c4 -29 11 -67 14 -84 7 -43 24 -42 24 1 0
36 12 46 56 46 13 0 24 5 24 11 0 8 -15 10 -45 7 -33 -4 -45 -2 -45 7 0 8 -3
20 -6 29 -4 11 2 17 20 21 14 3 37 7 51 10 14 3 25 10 25 15 0 11 -5 11 -76
-2z"/>
<path d="M2385 1768 c-11 -52 -10 -148 2 -148 6 0 13 15 15 33 3 31 4 32 46
29 54 -5 56 14 2 23 -36 6 -40 9 -40 37 l0 31 50 -7 c29 -4 50 -3 50 3 0 13
-27 21 -76 21 -37 0 -44 -3 -49 -22z"/>
</g>
</svg>
